<?xml version="1.0" standalone="no"?>
<!DOCTYPE svg PUBLIC "-//W3C//DTD SVG 20010904//EN"
 "http://www.w3.org/TR/2001/REC-SVG-20010904/DTD/svg10.dtd">
<svg version="1.0" xmlns="http://www.w3.org/2000/svg"
 width="236.000000pt" height="236.000000pt" viewBox="0 0 236.000000 236.000000"
 preserveAspectRatio="xMidYMid meet">
<metadata>
Created by potrace 1.11, written by Peter Selinger 2001-2013
</metadata>
<g transform="translate(0.000000,236.000000) scale(0.100000,-0.100000)"
fill="#000000" stroke="none">
<path d="M715 1784 c-8 -20 -15 -39 -15 -41 0 -3 -6 -19 -14 -36 -8 -18 -101
-264 -206 -547 -106 -283 -201 -536 -211 -563 l-19 -47 202 2 201 3 30 102 30
102 223 0 c202 0 223 -1 228 -17 3 -9 17 -56 31 -104 l26 -88 206 0 c191 0
205 1 198 17 -10 26 -274 732 -289 773 -7 19 -47 125 -88 235 -42 110 -79 210
-83 223 -6 22 -7 22 -221 22 l-214 0 -15 -36z m294 -532 c33 -111 61 -207 61
-212 0 -6 -54 -10 -135 -10 -74 0 -135 1 -135 3 0 4 49 167 107 354 15 50 31
86 34 80 4 -7 34 -103 68 -215z"/>
<path d="M1739 883 c-1 -23 -1 -316 0 -325 1 -5 84 -8 186 -8 141 0 185 3 186
13 1 17 1 276 0 310 l-1 27 -185 0 c-169 0 -185 -1 -186 -17z"/>
</g>
</svg>
